#Comment line ignore any data following # character 
#Hierarchical Translation and Rotation (.htr) file 
[Header]	
#Header keywords are followed by a single value 
FileType HTR		#Single word string
DataType HTRS		#Translation followed by rotation and scale data
FileVersion 1		#integer
NumSegments 25		#integer
NumFrames 6		#integer
DataFrameRate 30		#integer, data frame rate in this file
EulerRotationOrder ZYX
CalibrationUnits mm
RotationUnits Degrees
GlobalAxisofGravity Y
BoneLengthAxis Y
ScaleFactor 1.00
[SegmentNames&Hierarchy]
#CHILD	PARENT
BN_Tick_Root GLOBAL
BN_Torso BN_Tick_Root
BN_L_Leg_Front01 BN_Torso
BN_L_Leg_Rear01 BN_Torso
BN_MetalTop BN_Torso
BN_Neck BN_Torso
BN_R_Leg_Front01 BN_Torso
BN_R_Leg_Rear01 BN_Torso
BN_Sack BN_Torso
BN_L_Leg_Front02 BN_L_Leg_Front01
BN_L_Leg_Front03 BN_L_Leg_Front02
BN_L_Leg_Rear02 BN_L_Leg_Rear01
BN_L_Leg_Rear03 BN_L_Leg_Rear02
BN_Head BN_Neck
BN_Needle BN_Head
BN_R_Leg_Front02 BN_R_Leg_Front01
BN_R_Leg_Front03 BN_R_Leg_Front02
BN_R_Leg_Rear02 BN_R_Leg_Rear01
BN_R_Leg_Rear03 BN_R_Leg_Rear02
BN_SackDef01 BN_Sack
BN_SackDef02 BN_Sack
BN_SackDef03 BN_Sack
BN_SackDef04 BN_Sack
BN_SackDef05 BN_Sack
BN_SackDef06 BN_Sack
[BasePosition]
#SegmentName Tx, Ty, Tz, Rx, Ry, Rz, BoneLength
BN_Tick_Root 0.000000 0.000000 0.000000 -90.000000 0.000000 0.000000 10.000000 
BN_Torso 0.000000 0.000000 0.000000 0.000000 0.000000 0.000000 10.000000 
BN_L_Leg_Front01 0.000000 0.000000 0.000000 0.000000 0.000000 0.000000 10.000000 
BN_L_Leg_Rear01 0.000000 0.000000 0.000000 0.000000 0.000000 0.000000 10.000000 
BN_MetalTop 0.000000 0.000000 0.000000 0.000000 0.000000 0.000000 10.000000 
BN_Neck 0.000000 0.000000 0.000000 0.000000 0.000000 0.000000 10.000000 
BN_R_Leg_Front01 0.000000 0.000000 0.000000 0.000000 0.000000 0.000000 10.000000 
BN_R_Leg_Rear01 0.000000 0.000000 0.000000 0.000000 0.000000 0.000000 10.000000 
BN_Sack 0.000000 0.000000 0.000000 0.000000 0.000000 0.000000 10.000000 
BN_L_Leg_Front02 0.000000 0.000000 0.000000 0.000000 0.000000 0.000000 10.000000 
BN_L_Leg_Front03 0.000000 0.000000 0.000000 0.000000 0.000000 0.000000 10.000000 
BN_L_Leg_Rear02 0.000000 0.000000 0.000000 0.000000 0.000000 0.000000 10.000000 
BN_L_Leg_Rear03 0.000000 0.000000 0.000000 0.000000 0.000000 0.000000 10.000000 
BN_Head 0.000000 0.000000 0.000000 0.000000 0.000000 0.000000 10.000000 
BN_Needle 0.000000 0.000000 0.000000 0.000000 0.000000 0.000000 10.000000 
BN_R_Leg_Front02 0.000000 0.000000 0.000000 0.000000 0.000000 0.000000 10.000000 
BN_R_Leg_Front03 0.000000 0.000000 0.000000 0.000000 0.000000 0.000000 10.000000 
BN_R_Leg_Rear02 0.000000 0.000000 0.000000 0.000000 0.000000 0.000000 10.000000 
BN_R_Leg_Rear03 0.000000 0.000000 0.000000 0.000000 0.000000 0.000000 10.000000 
BN_SackDef01 0.000000 0.000000 0.000000 0.000000 0.000000 0.000000 10.000000 
BN_SackDef02 0.000000 0.000000 0.000000 0.000000 0.000000 0.000000 10.000000 
BN_SackDef03 0.000000 0.000000 0.000000 0.000000 0.000000 0.000000 10.000000 
BN_SackDef04 0.000000 0.000000 0.000000 0.000000 0.000000 0.000000 10.000000 
BN_SackDef05 0.000000 0.000000 0.000000 0.000000 0.000000 0.000000 10.000000 
BN_SackDef06 0.000000 0.000000 0.000000 0.000000 0.000000 0.000000 10.000000 
#Beginning of Data. Separated by tabs
#Fr	Tx	Ty	Tz	Rx	Ry	Rz	SF
[BN_Tick_Root]
189 -454.374878 1969.779907 47.057358 0.000000 -0.000000 19.839745 2022.054321
190 -453.781189 1965.307373 36.835434 0.000000 -0.000000 19.839741 2017.351563
191 -453.231262 1961.163940 27.655643 0.000000 -0.000000 19.839741 2013.044434
192 -452.735931 1957.432251 19.616861 0.000000 -0.000000 19.839741 2009.202759
193 -452.306213 1954.194580 12.817903 0.000000 -0.000000 19.839741 2005.896729
194 -451.952972 1951.533081 7.357862 0.000000 -0.000000 19.839745 2003.196777
[BN_Torso]
189 20.415421 75.540810 381.185760 -5.724967 -7.756137 -9.464364 389.134674
190 44.240765 71.223785 395.209625 -4.885244 -4.762297 -10.915665 404.005859
191 62.907143 68.103943 406.376007 -4.297866 -2.446895 -12.032721 416.817627
192 74.708122 67.133255 415.226410 -3.956524 -1.017028 -12.722967 427.201508
193 81.750565 67.434196 422.471649 -3.750568 -0.190691 -13.124092 435.560364
194 87.301552 67.474297 428.447296 -3.544111 0.460553 -13.452755 442.426758
[BN_L_Leg_Front01]
189 -68.477791 10.734189 -26.804373 -44.456696 61.768986 159.976776 74.316254
190 -68.477791 10.734189 -26.804373 -46.056610 60.209015 162.128937 74.316254
191 -68.477791 10.734189 -26.804373 -47.146812 58.788929 164.066284 74.316254
192 -68.477791 10.734189 -26.804373 -47.734692 57.921295 165.319382 74.316254
193 -68.477791 10.734189 -26.804373 -48.057602 57.354008 166.185944 74.316254
194 -68.477791 10.734189 -26.804373 -48.391197 56.789383 167.045181 74.316254
[BN_L_Leg_Rear01]
189 -72.133743 -73.994843 -18.268616 93.727875 -1.462472 -113.580376 104.939293
190 -72.133743 -73.994843 -18.268616 93.520004 -1.270487 -114.170593 104.939293
191 -72.133743 -73.994843 -18.268616 93.259323 -1.137223 -114.586105 104.939293
192 -72.133743 -73.994843 -18.268616 93.080475 -1.108824 -114.736542 104.939293
193 -72.133743 -73.994843 -18.268616 92.940887 -1.145038 -114.704872 104.939293
194 -72.133743 -73.994843 -18.268616 92.801262 -1.181180 -114.673111 104.939293
[BN_MetalTop]
189 0.000008 13.737477 26.403606 90.000008 -12.928561 -89.999992 29.763546
190 0.000008 13.737477 26.403606 90.000008 -12.928561 -89.999992 29.763546
191 0.000008 13.737477 26.403606 90.000008 -12.928561 -89.999992 29.763546
192 0.000008 13.737477 26.403606 90.000008 -12.928561 -89.999992 29.763546
193 0.000008 13.737477 26.403606 90.000008 -12.928561 -89.999992 29.763546
194 0.000008 13.737477 26.403606 90.000008 -12.928561 -89.999992 29.763546
[BN_Neck]
189 0.000014 95.233284 10.002091 -90.000443 -41.887707 89.999176 95.757088
190 0.000014 95.233284 10.002091 -90.000443 -41.887707 89.999176 95.757088
191 0.000014 95.233284 10.002091 -90.000443 -41.887707 89.999176 95.757088
192 0.000014 95.233284 10.002091 -90.000443 -41.887707 89.999176 95.757088
193 0.000014 95.233284 10.002091 -90.000443 -41.887707 89.999176 95.757088
194 0.000014 95.233284 10.002091 -90.000443 -41.887707 89.999176 95.757088
[BN_R_Leg_Front01]
189 68.477768 10.734107 -26.804314 -53.728981 77.219780 -136.625519 74.316193
190 68.477768 10.734107 -26.804314 -59.146515 76.547066 -143.120148 74.316193
191 68.477768 10.734107 -26.804314 -64.222733 75.686951 -149.587997 74.316193
192 68.477768 10.734107 -26.804314 -66.893654 75.088913 -153.618469 74.316193
193 68.477768 10.734107 -26.804314 -68.272995 74.693428 -156.069580 74.316193
194 68.477768 10.734107 -26.804314 -69.554482 74.283188 -158.424042 74.316193
[BN_R_Leg_Rear01]
189 72.133751 -73.994873 -18.268644 -66.443756 65.285378 -64.804321 104.939331
190 72.133751 -73.994873 -18.268644 -67.097420 65.326271 -66.813087 104.939331
191 72.133751 -73.994873 -18.268644 -67.754959 65.357498 -68.825432 104.939331
192 72.133751 -73.994873 -18.268644 -68.328888 65.381592 -70.165276 104.939331
193 72.133751 -73.994873 -18.268644 -68.757637 65.404198 -70.932266 104.939331
194 72.133751 -73.994873 -18.268644 -69.187485 65.424438 -71.700272 104.939331
[BN_Sack]
189 -0.000000 -78.024918 33.657791 89.999214 15.437606 -90.003716 84.974907
190 -0.000000 -78.024918 33.657791 89.999245 14.021721 -90.002235 84.974907
191 -0.000000 -78.024918 33.657791 89.999222 12.605416 -90.000771 84.974907
192 -0.000000 -78.024918 33.657791 89.999176 11.189114 -89.999313 84.974907
193 -0.000000 -78.024918 33.657791 89.999084 9.773269 -89.997849 84.974907
194 -0.000000 -78.024918 33.657791 90.002357 8.620659 -89.999153 84.974907
[BN_L_Leg_Front02]
189 142.805023 -0.000015 -0.000104 -0.844867 1.098949 -163.657532 142.805023
190 142.805023 -0.000015 -0.000104 -0.907640 0.974797 -165.668396 142.805023
191 142.805023 -0.000015 -0.000104 -0.943962 0.881459 -167.106064 142.805023
192 142.805023 -0.000015 -0.000104 -0.865125 0.895334 -161.561859 142.805023
193 142.805023 -0.000015 -0.000104 -0.669386 0.952417 -149.167953 142.805023
194 142.805023 -0.000015 -0.000104 -0.573265 0.958313 -142.794678 142.805023
[BN_L_Leg_Front03]
189 124.143021 -0.000045 0.000007 0.352815 0.002270 -179.670288 124.143021
190 124.143021 -0.000045 0.000007 0.352815 0.002270 -179.670288 124.143021
191 124.143021 -0.000045 0.000007 0.352815 0.002266 -179.670731 124.143021
192 124.143021 -0.000045 0.000007 0.353096 -0.015972 178.221771 124.143021
193 124.143021 -0.000045 0.000007 0.350912 -0.047059 173.802597 124.143021
194 124.143021 -0.000045 0.000007 0.354064 -0.069188 171.369141 124.143021
[BN_L_Leg_Rear02]
189 139.939041 0.000075 -0.000022 0.361063 -0.571597 -12.174933 139.939041
190 139.939041 0.000075 -0.000022 0.374429 -0.568252 -12.884252 139.939041
191 139.939041 0.000075 -0.000022 0.387752 -0.564743 -13.593509 139.939041
192 139.939041 0.000075 -0.000022 0.399798 -0.561995 -14.046873 139.939041
193 139.939041 0.000075 -0.000022 0.403973 -0.560757 -14.297220 139.939041
194 139.939041 0.000075 -0.000022 0.408142 -0.559500 -14.547567 139.939041
[BN_L_Leg_Rear03]
189 142.839615 0.000179 -0.000060 0.000119 -0.002344 -95.807106 142.839615
190 142.839615 0.000179 -0.000060 0.000085 -0.002346 -94.148903 142.839615
191 142.839615 0.000179 -0.000060 0.000051 -0.002347 -92.490829 142.839615
192 142.839615 0.000179 -0.000060 0.000029 -0.002347 -91.431770 142.839615
193 142.839615 0.000179 -0.000060 0.000006 -0.000782 -90.826454 142.839615
194 142.839615 0.000179 -0.000060 -0.000002 0.000783 -90.221130 142.839615
[BN_Head]
189 57.062447 -0.000030 0.000000 0.001962 0.001289 23.408854 57.062447
190 57.062447 -0.000030 0.000000 0.001962 0.001289 23.408854 57.062447
191 57.062447 -0.000030 0.000000 0.001962 0.001289 23.408854 57.062447
192 57.062447 -0.000030 0.000000 0.001962 0.001289 23.408854 57.062447
193 57.062447 -0.000030 0.000000 0.001962 0.001289 23.408854 57.062447
194 57.062447 -0.000030 0.000000 0.001962 0.001289 23.408854 57.062447
[BN_Needle]
189 38.249035 187.688828 0.000024 0.000003 0.000030 87.896805 191.546570
190 38.249001 187.687424 0.000038 0.000003 0.000030 87.896805 191.545181
191 38.008595 181.141373 -0.000057 0.000003 0.000030 87.896805 185.086060
192 37.383389 164.121216 -0.000114 0.000003 0.000030 87.896805 168.324951
193 36.517574 140.545563 -0.000057 0.000003 0.000030 87.896805 145.212219
194 35.578510 114.973991 -0.000086 0.000003 0.000030 87.896805 120.353020
[BN_R_Leg_Front02]
189 142.804947 -0.000060 0.000060 0.219437 0.963846 156.365616 142.804947
190 142.804947 -0.000060 0.000060 0.277541 1.015173 160.339264 142.804947
191 142.804947 -0.000060 0.000060 0.328850 1.053082 164.079239 142.804947
192 142.804947 -0.000060 0.000060 0.358781 1.066620 166.527969 142.804947
193 142.804947 -0.000060 0.000060 0.386422 1.082692 168.135605 142.804947
194 142.804947 -0.000060 0.000060 0.412842 1.098850 169.562088 142.804947
[BN_R_Leg_Front03]
189 124.143005 -0.000060 -0.000156 -0.354983 -0.217275 -151.329636 124.143005
190 124.143005 -0.000060 -0.000156 -0.351588 -0.202704 -153.219574 124.143005
191 124.143005 -0.000060 -0.000156 -0.354991 -0.191239 -154.909515 124.143005
192 124.143005 -0.000060 -0.000156 -0.355971 -0.183837 -155.977432 124.143005
193 124.143005 -0.000060 -0.000156 -0.353442 -0.178554 -156.616348 124.143005
194 124.143005 -0.000060 -0.000156 -0.350973 -0.173244 -157.255219 124.143005
[BN_R_Leg_Rear02]
189 139.939011 -0.000149 0.000015 0.045619 -0.247789 -133.272232 139.939011
190 139.939011 -0.000149 0.000015 0.060097 -0.251241 -137.188080 139.939011
191 139.939011 -0.000149 0.000015 0.074774 -0.253696 -141.103577 139.939011
192 139.939011 -0.000149 0.000015 0.079736 -0.252181 -143.351044 139.939011
193 139.939011 -0.000149 0.000015 0.083740 -0.251927 -144.455597 139.939011
194 139.939011 -0.000149 0.000015 0.087739 -0.251597 -145.560257 139.939011
[BN_R_Leg_Rear03]
189 142.839417 0.000075 0.000119 0.002067 -0.001111 146.522018 142.839417
190 142.839417 0.000075 0.000119 0.002046 -0.001151 148.715195 142.839417
191 142.839417 0.000075 0.000119 0.002023 -0.001190 150.908127 142.839417
192 142.839417 0.000075 0.000119 0.002011 -0.001210 152.051056 142.839417
193 142.839417 0.000075 0.000119 0.002006 -0.001219 152.563416 142.839417
194 142.839417 0.000075 0.000119 0.002001 -0.001228 153.075790 142.839417
[BN_SackDef01]
189 249.782272 -3.760844 42.949425 -128.408218 -44.374973 -11.740845 253.475800
190 249.782272 -3.760844 42.949425 -128.408218 -44.374973 -11.740845 253.475800
191 249.782272 -3.760844 42.949425 -128.408218 -44.374973 -11.740845 253.475800
192 249.782272 -3.760844 42.949425 -128.408218 -44.374973 -11.740845 253.475800
193 249.782272 -3.760844 42.949425 -128.408218 -44.374973 -11.740845 253.475800
194 249.782272 -3.760844 42.949425 -128.408218 -44.374973 -11.740845 253.475800
[BN_SackDef02]
189 138.789795 -62.131748 45.674385 32.077126 -27.375721 -88.781525 158.773758
190 138.789795 -62.131748 45.674385 32.077126 -27.375721 -88.781525 158.773758
191 138.789795 -62.131748 45.674385 32.077126 -27.375721 -88.781525 158.773758
192 138.789795 -62.131748 45.674385 32.077126 -27.375721 -88.781525 158.773758
193 138.789795 -62.131748 45.674385 32.077126 -27.375721 -88.781525 158.773758
194 138.789795 -62.131748 45.674385 32.077126 -27.375721 -88.781525 158.773758
[BN_SackDef03]
189 249.782272 -3.760785 -42.949661 18.144459 44.375008 -11.740894 253.475845
190 249.782272 -3.760785 -42.949661 18.144459 44.375008 -11.740894 253.475845
191 249.782272 -3.760785 -42.949661 18.144459 44.375008 -11.740894 253.475845
192 249.782272 -3.760785 -42.949661 18.144459 44.375008 -11.740894 253.475845
193 249.782272 -3.760785 -42.949661 18.144459 44.375008 -11.740894 253.475845
194 249.782272 -3.760785 -42.949661 18.144459 44.375008 -11.740894 253.475845
[BN_SackDef04]
189 138.789780 -62.131645 -45.674473 146.059982 27.375723 -88.781555 158.773743
190 138.789780 -62.131645 -45.674473 146.059982 27.375723 -88.781555 158.773743
191 138.789780 -62.131645 -45.674473 146.059982 27.375723 -88.781555 158.773743
192 138.789780 -62.131645 -45.674473 146.059982 27.375723 -88.781555 158.773743
193 138.789780 -62.131645 -45.674473 146.059982 27.375723 -88.781555 158.773743
194 138.789780 -62.131645 -45.674473 146.059982 27.375723 -88.781555 158.773743
[BN_SackDef05]
189 118.790161 46.167137 -63.831196 0.155741 51.314110 90.605110 142.537460
190 118.790161 46.167137 -63.831196 0.155741 51.314110 90.605110 142.537460
191 118.790161 46.167137 -63.831196 0.155741 51.314110 90.605110 142.537460
192 118.790161 46.167137 -63.831196 0.155741 51.314110 90.605110 142.537460
193 118.790161 46.167137 -63.831196 0.155741 51.314110 90.605110 142.537460
194 118.790161 46.167137 -63.831196 0.155741 51.314110 90.605110 142.537460
[BN_SackDef06]
189 118.790207 46.167194 63.831219 152.058487 -51.314072 90.605019 142.537537
190 118.790207 46.167194 63.831219 152.058487 -51.314072 90.605019 142.537537
191 118.790207 46.167194 63.831219 152.058487 -51.314072 90.605019 142.537537
192 118.790207 46.167194 63.831219 152.058487 -51.314072 90.605019 142.537537
193 118.790207 46.167194 63.831219 152.058487 -51.314072 90.605019 142.537537
194 118.790207 46.167194 63.831219 152.058487 -51.314072 90.605019 142.537537
